<svg width="11px" height="11px" viewBox="0 0 11 11" version="1.1" xmlns="http://www.w3.org/2000/svg" xmlns:xlink="http://www.w3.org/1999/xlink">
    <title>close_icon</title>
    <g id="页面-1" stroke="none" stroke-width="1" fill="none" fill-rule="evenodd">
        <g id="发现/标签-详情" transform="translate(-347.000000, -230.000000)" fill="#000000">
            <g id="详情" transform="translate(0.000000, 222.000000)">
                <path d="M349.997281,9.11475727 L352.767767,11.885233 L355.538252,9.11475727 C356.048285,8.60472497 356.87521,8.60472497 357.385243,9.11475727 C357.895275,9.62478956 357.895275,10.4517153 357.385243,10.9617476 L354.614767,13.732233 L357.385243,16.5027185 C357.895275,17.0127508 357.895275,17.8396765 357.385243,18.3497088 C356.87521,18.8597411 356.048285,18.8597411 355.538252,18.3497088 L352.767767,15.579233 L349.997281,18.3497088 C349.487249,18.8597411 348.660323,18.8597411 348.150291,18.3497088 C347.640259,17.8396765 347.640259,17.0127508 348.150291,16.5027185 L350.920767,13.732233 L348.150291,10.9617476 C347.640259,10.4517153 347.640259,9.62478956 348.150291,9.11475727 C348.660323,8.60472497 349.487249,8.60472497 349.997281,9.11475727 Z" id="close_icon"></path>
            </g>
        </g>
    </g>
</svg>