<svg width="10px" height="11px" viewBox="0 0 10 11" version="1.1" xmlns="http://www.w3.org/2000/svg" xmlns:xlink="http://www.w3.org/1999/xlink">
    <title>rise_icon</title>
    <g id="页面-1" stroke="none" stroke-width="1" fill="none" fill-rule="evenodd">
        <g id="发现/标签-车型-指数详情-单独页面" transform="translate(-138.000000, -930.000000)" fill="#D377CD">
            <g id="工业垃圾指数详情页" transform="translate(0.000000, 72.000000)">
                <g id="急刹和急行" transform="translate(5.000000, 665.000000)">
                    <g id="Group-2" transform="translate(119.000000, 146.000000)">
                        <path d="M19.2984473,47.4659689 L22.901738,50.209156 C23.3411707,50.5436964 23.4262028,51.1711256 23.0916624,51.6105584 C22.9025343,51.858986 22.608226,52.0048194 22.295999,52.0048194 L19.9814177,52.0046323 L19.9819217,56.6851957 C19.9819217,57.4140037 19.391106,58.0048194 18.662298,58.0048194 C17.9334899,58.0048194 17.3426742,57.4140037 17.3426742,56.6851957 L17.3424177,52.0046323 L15.0894177,52.0048194 C14.537133,52.0048194 14.0894177,51.5571042 14.0894177,51.0048194 C14.0894177,50.6925924 14.2352511,50.3982841 14.4836787,50.209156 L18.0869693,47.4659689 C18.4448422,47.1935201 18.9405745,47.1935201 19.2984473,47.4659689 Z" id="rise_icon" transform="translate(18.692735, 52.633226) scale(1, -1) translate(-18.692735, -52.633226) "></path>
                    </g>
                </g>
            </g>
        </g>
    </g>
</svg>