<svg width="9px" height="9px" viewBox="0 0 9 9" version="1.1" xmlns="http://www.w3.org/2000/svg" xmlns:xlink="http://www.w3.org/1999/xlink">
    <title>edit_icon</title>
    <g id="页面-1" stroke="none" stroke-width="1" fill="none" fill-rule="evenodd">
        <g id="发现/标签-详情" transform="translate(-209.000000, -511.000000)" fill="#888888" fill-rule="nonzero">
            <g id="详情" transform="translate(0.000000, 222.000000)">
                <g id="修改话题" transform="translate(16.000000, 277.000000)">
                    <path d="M201.997883,13.817278 C202.01482,14.0229688 201.930134,14.2200891 201.743825,14.408639 C201.659139,14.4943435 201.582922,14.5757627 201.515173,14.6528968 C201.447424,14.7300308 201.388144,14.7943092 201.337332,14.8457319 C201.269584,14.9142955 201.210303,14.9657182 201.159492,15 L199,12.8402468 C199.101623,12.7545423 199.215949,12.651697 199.342978,12.5317107 C199.470007,12.4117244 199.575864,12.3174494 199.66055,12.2488858 C199.863797,12.060336 200.08398,11.9789167 200.321101,12.004628 C200.558222,12.0303394 200.752999,12.0860473 200.905434,12.1717518 C201.074806,12.2574563 201.256881,12.4074392 201.451658,12.6217004 C201.646436,12.8359616 201.794637,13.0630785 201.89626,13.3030511 C201.947071,13.4401782 201.980946,13.6115872 201.997883,13.817278 Z M193.866126,18.3460869 L194.143002,18.0691304 L194.675456,17.5365217 C194.888438,17.3234782 195.122718,17.0855797 195.378296,16.8228261 C195.633874,16.5600724 195.889452,16.3008695 196.14503,16.0452174 C196.755578,15.4344927 197.444219,14.7527536 198.210953,14 L200,15.7895652 L197.934077,17.8560869 L197.167343,18.6230435 L196.464503,19.3260869 C196.26572,19.5249275 196.098884,19.6953623 195.963996,19.8373913 C195.829107,19.9794203 195.754564,20.0575362 195.740365,20.0717391 C195.669371,20.1285507 195.591278,20.188913 195.506085,20.2528261 C195.420892,20.3167391 195.3357,20.37 195.250507,20.4126087 C195.165314,20.4552174 195.033976,20.5084782 194.856491,20.5723913 C194.679006,20.6363044 194.497972,20.6966667 194.313387,20.7534783 C194.128803,20.8102899 193.951318,20.86 193.780933,20.9026087 C193.610548,20.9452174 193.482759,20.9736232 193.397566,20.9878261 C193.227181,21.0162319 193.11359,20.9949275 193.056795,20.9239131 C193,20.8528986 192.985801,20.7321739 193.014199,20.5617391 C193.028398,20.4765218 193.056795,20.3486957 193.099391,20.1782609 C193.141988,20.0078261 193.191684,19.8338406 193.248479,19.6563044 C193.305274,19.4787681 193.358519,19.3118841 193.408215,19.1556522 C193.457911,18.9994203 193.496957,18.8928986 193.525355,18.836087 C193.610548,18.6514493 193.724138,18.488116 193.866126,18.346087 L193.866126,18.3460869 Z" id="edit_icon"></path>
                </g>
            </g>
        </g>
    </g>
</svg>