<svg width="11px" height="11px" viewBox="0 0 11 11" version="1.1" xmlns="http://www.w3.org/2000/svg" xmlns:xlink="http://www.w3.org/1999/xlink">
    <title>rise_icon</title>
    <g id="页面-1" stroke="none" stroke-width="1" fill="none" fill-rule="evenodd">
        <g id="发现/标签-车型-指数详情-单独页面" transform="translate(-137.000000, -856.000000)" fill="#46EBD5">
            <g id="工业垃圾指数详情页" transform="translate(0.000000, 72.000000)">
                <g id="急刹和急行" transform="translate(5.000000, 665.000000)">
                    <g id="Group-2" transform="translate(119.000000, 72.000000)">
                        <path d="M19.1097108,47.4690083 L22.6695888,50.207376 C23.107343,50.54411 23.189236,51.1719566 22.852502,51.6097108 C22.6632057,51.8557959 22.3703471,52 22.0598781,52 L19.7751219,51.9996323 L19.7759225,56.6939806 C19.7759225,57.4152752 19.1911977,58 18.4699031,58 C17.7486085,58 17.1638838,57.4152752 17.1638838,56.6939806 L17.1631219,51.9996323 L14.9401219,52 C14.3878372,52 13.9401219,51.5522847 13.9401219,51 C13.9401219,50.689531 14.084326,50.3966723 14.3304112,50.207376 L17.8902892,47.4690083 C18.249741,47.1925069 18.750259,47.1925069 19.1097108,47.4690083 Z" id="rise_icon"></path>
                    </g>
                </g>
            </g>
        </g>
    </g>
</svg>