<svg width="22px" height="22px" viewBox="0 0 22 22" version="1.1" xmlns="http://www.w3.org/2000/svg" xmlns:xlink="http://www.w3.org/1999/xlink">
    <title>Combined Shape</title>
    <g id="页面-1" stroke="none" stroke-width="1" fill="none" fill-rule="evenodd" fill-opacity="0.596637228">
        <g id="发现" transform="translate(-148.000000, -184.000000)" fill="#FFFFFF">
            <g id="标签内容" transform="translate(4.000000, 168.000000)">
                <path d="M155,16 C161.075132,16 166,20.9248678 166,27 C166,33.0751322 161.075132,38 155,38 C148.924868,38 144,33.0751322 144,27 C144,20.9248678 148.924868,16 155,16 Z M153,21 L152,21 C151.447715,21 151,21.4477153 151,22 L151,22 L151,23 L150,23 C149.447715,23 149,23.4477153 149,24 L149,24 L149,25 C149,25.5522847 149.447715,26 150,26 L150,26 L151,26 L151,29 L150,29 C149.447715,29 149,29.4477153 149,30 L149,30 L149,31 C149,31.5522847 149.447715,32 150,32 L150,32 L151,32 L151,33 C151,33.5522847 151.447715,34 152,34 L152,34 L153,34 C153.552285,34 154,33.5522847 154,33 L154,33 L154,32 L156,32 L156,33 C156,33.5522847 156.447715,34 157,34 L157,34 L158,34 C158.552285,34 159,33.5522847 159,33 L159,33 L159,32 L160,32 C160.552285,32 161,31.5522847 161,31 L161,31 L161,30 C161,29.4477153 160.552285,29 160,29 L160,29 L159,29 L159,26 L160,26 C160.552285,26 161,25.5522847 161,25 L161,25 L161,24 C161,23.4477153 160.552285,23 160,23 L160,23 L159,22.999 L159,22 C159,21.4477153 158.552285,21 158,21 L158,21 L157,21 C156.447715,21 156,21.4477153 156,22 L156,22 L156,23 L154,23 L154,22 C154,21.4477153 153.552285,21 153,21 L153,21 Z M156,26 L156,29 L154,29 L154,26 L156,26 Z" id="Combined-Shape"></path>
            </g>
        </g>
    </g>
</svg>