<svg width="14px" height="14px" viewBox="0 0 14 14" version="1.1" xmlns="http://www.w3.org/2000/svg" xmlns:xlink="http://www.w3.org/1999/xlink">
    <title>tag_icon2</title>
    <g id="页面-1" stroke="none" stroke-width="1" fill="none" fill-rule="evenodd">
        <g id="发现/标签-详情" transform="translate(-113.000000, -392.000000)" fill="#3388FF">
            <g id="详情" transform="translate(0.000000, 222.000000)">
                <g id="母标签" transform="translate(15.000000, 145.000000)">
                    <g id="Group-3" transform="translate(89.000000, 22.000000)">
                        <path d="M16,3 C19.8659932,3 23,6.13400675 23,10 C23,13.8659932 19.8659932,17 16,17 C12.1340068,17 9,13.8659932 9,10 C9,6.13400675 12.1340068,3 16,3 Z M17.6666667,6 C17.1143819,6 16.6666667,6.44771525 16.6666667,7 L16.6666667,7 L16.666,7.23 L15.333,7.23 L15.3333333,7 C15.3333333,6.44771525 14.8856181,6 14.3333333,6 C13.7810486,6 13.3333333,6.44771525 13.3333333,7 L13.3333333,7 L13.333,7.23 L12.9230769,7.23076923 C12.4132756,7.23076923 12,7.64404485 12,8.15384615 C12,8.66364746 12.4132756,9.07692308 12.9230769,9.07692308 L12.9230769,9.07692308 L13.333,9.076 L13.333,10.923 L12.9230769,10.9230769 C12.4132756,10.9230769 12,11.3363525 12,11.8461538 C12,12.3559552 12.4132756,12.7692308 12.9230769,12.7692308 L12.9230769,12.7692308 L13.333,12.769 L13.3333333,13 C13.3333333,13.5522847 13.7810486,14 14.3333333,14 C14.8856181,14 15.3333333,13.5522847 15.3333333,13 L15.3333333,13 L15.333,12.769 L16.666,12.769 L16.6666667,13 C16.6666667,13.5522847 17.1143819,14 17.6666667,14 C18.2189514,14 18.6666667,13.5522847 18.6666667,13 L18.6666667,13 L18.666,12.769 L19.0769231,12.7692308 C19.5867244,12.7692308 20,12.3559552 20,11.8461538 C20,11.3363525 19.5867244,10.9230769 19.0769231,10.9230769 L19.0769231,10.9230769 L18.666,10.923 L18.666,9.076 L19.0769231,9.07692308 C19.5867244,9.07692308 20,8.66364746 20,8.15384615 C20,7.64404485 19.5867244,7.23076923 19.0769231,7.23076923 L19.0769231,7.23076923 L18.666,7.23 L18.6666667,7 C18.6666667,6.44771525 18.2189514,6 17.6666667,6 Z M16.666,9.076 L16.666,10.923 L15.333,10.923 L15.333,9.076 L16.666,9.076 Z" id="tag_icon2"></path>
                    </g>
                </g>
            </g>
        </g>
    </g>
</svg>