<svg width="14px" height="14px" viewBox="0 0 14 14" version="1.1" xmlns="http://www.w3.org/2000/svg" xmlns:xlink="http://www.w3.org/1999/xlink">
    <title>tag_icon2</title>
    <g id="页面-1" stroke="none" stroke-width="1" fill="none" fill-rule="evenodd">
        <g id="发现/标签-车型-无车控指数" transform="translate(-130.000000, -327.000000)" fill="#D377CD">
            <g id="Group-2" transform="translate(-31.000000, 230.000000)">
                <path d="M168,97 C171.865993,97 175,100.134007 175,104 C175,107.865993 171.865993,111 168,111 C164.134007,111 161,107.865993 161,104 C161,100.134007 164.134007,97 168,97 Z M168.04886,99.1486328 C165.674462,100.21243 166.226113,103.279661 166.155407,104.211065 C165.558151,103.630256 165.445328,102.242574 165.445328,102.242574 C164.814788,102.627861 164.498525,103.657405 164.498525,104.492411 C164.498525,106.511755 165.876152,108.148633 167.575434,108.148633 C169.274681,108.148633 170.652344,106.511729 170.652344,104.492411 C170.652344,103.292325 169.910837,102.738571 169.919776,101.104088 C168.882001,101.455867 168.691968,102.452729 168.758879,103.085921 C168.10561,102.173532 168.052385,101.140091 168.048904,99.7323103 L168.04886,99.1486328 L168.04886,99.1486328 Z" id="tag_icon2"></path>
            </g>
        </g>
    </g>
</svg>