<svg xmlns="http://www.w3.org/2000/svg" xmlns:xlink="http://www.w3.org/1999/xlink" width="0" height="0" style="display:none;"><symbol viewBox="0 0 11 11" id="iconfont-close_icon">
    <title>close_icon</title>
    <g id="页面-1" stroke="none" stroke-width="1" fill="none" fill-rule="evenodd">
        <g id="发现/标签-详情" transform="translate(-347.000000, -230.000000)" fill="#000000">
            <g id="详情" transform="translate(0.000000, 222.000000)">
                <path d="M349.997281,9.11475727 L352.767767,11.885233 L355.538252,9.11475727 C356.048285,8.60472497 356.87521,8.60472497 357.385243,9.11475727 C357.895275,9.62478956 357.895275,10.4517153 357.385243,10.9617476 L354.614767,13.732233 L357.385243,16.5027185 C357.895275,17.0127508 357.895275,17.8396765 357.385243,18.3497088 C356.87521,18.8597411 356.048285,18.8597411 355.538252,18.3497088 L352.767767,15.579233 L349.997281,18.3497088 C349.487249,18.8597411 348.660323,18.8597411 348.150291,18.3497088 C347.640259,17.8396765 347.640259,17.0127508 348.150291,16.5027185 L350.920767,13.732233 L348.150291,10.9617476 C347.640259,10.4517153 347.640259,9.62478956 348.150291,9.11475727 C348.660323,8.60472497 349.487249,8.60472497 349.997281,9.11475727 Z" id="close_icon"></path>
            </g>
        </g>
    </g>
</symbol><symbol viewBox="0 0 10 11" id="iconfont-down_icon">
    <title>rise_icon</title>
    <g id="页面-1" stroke="none" stroke-width="1" fill="none" fill-rule="evenodd">
        <g id="发现/标签-车型-指数详情-单独页面" transform="translate(-138.000000, -930.000000)" fill="#D377CD">
            <g id="工业垃圾指数详情页" transform="translate(0.000000, 72.000000)">
                <g id="急刹和急行" transform="translate(5.000000, 665.000000)">
                    <g id="Group-2" transform="translate(119.000000, 146.000000)">
                        <path d="M19.2984473,47.4659689 L22.901738,50.209156 C23.3411707,50.5436964 23.4262028,51.1711256 23.0916624,51.6105584 C22.9025343,51.858986 22.608226,52.0048194 22.295999,52.0048194 L19.9814177,52.0046323 L19.9819217,56.6851957 C19.9819217,57.4140037 19.391106,58.0048194 18.662298,58.0048194 C17.9334899,58.0048194 17.3426742,57.4140037 17.3426742,56.6851957 L17.3424177,52.0046323 L15.0894177,52.0048194 C14.537133,52.0048194 14.0894177,51.5571042 14.0894177,51.0048194 C14.0894177,50.6925924 14.2352511,50.3982841 14.4836787,50.209156 L18.0869693,47.4659689 C18.4448422,47.1935201 18.9405745,47.1935201 19.2984473,47.4659689 Z" id="rise_icon" transform="translate(18.692735, 52.633226) scale(1, -1) translate(-18.692735, -52.633226) "></path>
                    </g>
                </g>
            </g>
        </g>
    </g>
</symbol><symbol viewBox="0 0 9 9" id="iconfont-edit_icon">
    <title>edit_icon</title>
    <g id="页面-1" stroke="none" stroke-width="1" fill="none" fill-rule="evenodd">
        <g id="发现/标签-详情" transform="translate(-209.000000, -511.000000)" fill="#888888" fill-rule="nonzero">
            <g id="详情" transform="translate(0.000000, 222.000000)">
                <g id="修改话题" transform="translate(16.000000, 277.000000)">
                    <path d="M201.997883,13.817278 C202.01482,14.0229688 201.930134,14.2200891 201.743825,14.408639 C201.659139,14.4943435 201.582922,14.5757627 201.515173,14.6528968 C201.447424,14.7300308 201.388144,14.7943092 201.337332,14.8457319 C201.269584,14.9142955 201.210303,14.9657182 201.159492,15 L199,12.8402468 C199.101623,12.7545423 199.215949,12.651697 199.342978,12.5317107 C199.470007,12.4117244 199.575864,12.3174494 199.66055,12.2488858 C199.863797,12.060336 200.08398,11.9789167 200.321101,12.004628 C200.558222,12.0303394 200.752999,12.0860473 200.905434,12.1717518 C201.074806,12.2574563 201.256881,12.4074392 201.451658,12.6217004 C201.646436,12.8359616 201.794637,13.0630785 201.89626,13.3030511 C201.947071,13.4401782 201.980946,13.6115872 201.997883,13.817278 Z M193.866126,18.3460869 L194.143002,18.0691304 L194.675456,17.5365217 C194.888438,17.3234782 195.122718,17.0855797 195.378296,16.8228261 C195.633874,16.5600724 195.889452,16.3008695 196.14503,16.0452174 C196.755578,15.4344927 197.444219,14.7527536 198.210953,14 L200,15.7895652 L197.934077,17.8560869 L197.167343,18.6230435 L196.464503,19.3260869 C196.26572,19.5249275 196.098884,19.6953623 195.963996,19.8373913 C195.829107,19.9794203 195.754564,20.0575362 195.740365,20.0717391 C195.669371,20.1285507 195.591278,20.188913 195.506085,20.2528261 C195.420892,20.3167391 195.3357,20.37 195.250507,20.4126087 C195.165314,20.4552174 195.033976,20.5084782 194.856491,20.5723913 C194.679006,20.6363044 194.497972,20.6966667 194.313387,20.7534783 C194.128803,20.8102899 193.951318,20.86 193.780933,20.9026087 C193.610548,20.9452174 193.482759,20.9736232 193.397566,20.9878261 C193.227181,21.0162319 193.11359,20.9949275 193.056795,20.9239131 C193,20.8528986 192.985801,20.7321739 193.014199,20.5617391 C193.028398,20.4765218 193.056795,20.3486957 193.099391,20.1782609 C193.141988,20.0078261 193.191684,19.8338406 193.248479,19.6563044 C193.305274,19.4787681 193.358519,19.3118841 193.408215,19.1556522 C193.457911,18.9994203 193.496957,18.8928986 193.525355,18.836087 C193.610548,18.6514493 193.724138,18.488116 193.866126,18.346087 L193.866126,18.3460869 Z" id="edit_icon"></path>
                </g>
            </g>
        </g>
    </g>
</symbol><symbol viewBox="0 0 24 24" id="iconfont-git">
 <path d="m2.6 10.59l5.78-5.79 1.69 1.7c-0.24 0.85 0.15 1.78 0.93 2.23v5.54c-0.6 0.34-1 0.99-1 1.73a2 2 0 0 0 2 2 2 2 0 0 0 2 -2c0-0.74-0.4-1.39-1-1.73v-4.86l2.07 2.09c-0.07 0.15-0.07 0.32-0.07 0.5a2 2 0 0 0 2 2 2 2 0 0 0 2 -2 2 2 0 0 0 -2 -2c-0.18 0-0.35 0-0.5 0.07l-2.57-2.57c0.26-0.93-0.22-1.95-1.15-2.34-0.43-0.16-0.88-0.2-1.28-0.09l-1.7-1.69 0.79-0.78c0.78-0.79 2.04-0.79 2.82 0l7.99 7.99c0.79 0.78 0.79 2.04 0 2.82l-7.99 7.99c-0.78 0.79-2.04 0.79-2.82 0l-7.99-7.99c-0.79-0.78-0.79-2.04 0-2.82z" fill="#e64a19"></path>
</symbol><symbol viewBox="0 0 11 11" id="iconfont-rise_icon">
    <title>rise_icon</title>
    <g id="页面-1" stroke="none" stroke-width="1" fill="none" fill-rule="evenodd">
        <g id="发现/标签-车型-指数详情-单独页面" transform="translate(-137.000000, -856.000000)" fill="#46EBD5">
            <g id="工业垃圾指数详情页" transform="translate(0.000000, 72.000000)">
                <g id="急刹和急行" transform="translate(5.000000, 665.000000)">
                    <g id="Group-2" transform="translate(119.000000, 72.000000)">
                        <path d="M19.1097108,47.4690083 L22.6695888,50.207376 C23.107343,50.54411 23.189236,51.1719566 22.852502,51.6097108 C22.6632057,51.8557959 22.3703471,52 22.0598781,52 L19.7751219,51.9996323 L19.7759225,56.6939806 C19.7759225,57.4152752 19.1911977,58 18.4699031,58 C17.7486085,58 17.1638838,57.4152752 17.1638838,56.6939806 L17.1631219,51.9996323 L14.9401219,52 C14.3878372,52 13.9401219,51.5522847 13.9401219,51 C13.9401219,50.689531 14.084326,50.3966723 14.3304112,50.207376 L17.8902892,47.4690083 C18.249741,47.1925069 18.750259,47.1925069 19.1097108,47.4690083 Z" id="rise_icon"></path>
                    </g>
                </g>
            </g>
        </g>
    </g>
</symbol><symbol viewBox="0 0 1024 1024" id="iconfont-search_icon">
	<path d="M909.6 854.5L649.9 594.8C690.2 542.7 712 479 712 412c0-80.2-31.3-155.4-87.9-212.1-56.6-56.7-132-87.9-212.1-87.9s-155.5 31.3-212.1 87.9C143.2 256.5 112 331.8 112 412c0 80.1 31.3 155.5 87.9 212.1C256.5 680.8 331.8 712 412 712c67 0 130.6-21.8 182.7-62l259.7 259.6c3.2 3.2 8.4 3.2 11.6 0l43.6-43.5c3.2-3.2 3.2-8.4 0-11.6zM570.4 570.4C528 612.7 471.8 636 412 636s-116-23.3-158.4-65.6C211.3 528 188 471.8 188 412s23.3-116.1 65.6-158.4C296 211.3 352.2 188 412 188s116.1 23.2 158.4 65.6S636 352.2 636 412s-23.3 116.1-65.6 158.4z" fill="#333333"></path>
</symbol><symbol viewBox="0 0 22 22" id="iconfont-tag">
    <title>Combined Shape</title>
    <g id="页面-1" stroke="none" stroke-width="1" fill="none" fill-rule="evenodd" fill-opacity="0.596637228">
        <g id="发现" transform="translate(-148.000000, -184.000000)" fill="#FFFFFF">
            <g id="标签内容" transform="translate(4.000000, 168.000000)">
                <path d="M155,16 C161.075132,16 166,20.9248678 166,27 C166,33.0751322 161.075132,38 155,38 C148.924868,38 144,33.0751322 144,27 C144,20.9248678 148.924868,16 155,16 Z M153,21 L152,21 C151.447715,21 151,21.4477153 151,22 L151,22 L151,23 L150,23 C149.447715,23 149,23.4477153 149,24 L149,24 L149,25 C149,25.5522847 149.447715,26 150,26 L150,26 L151,26 L151,29 L150,29 C149.447715,29 149,29.4477153 149,30 L149,30 L149,31 C149,31.5522847 149.447715,32 150,32 L150,32 L151,32 L151,33 C151,33.5522847 151.447715,34 152,34 L152,34 L153,34 C153.552285,34 154,33.5522847 154,33 L154,33 L154,32 L156,32 L156,33 C156,33.5522847 156.447715,34 157,34 L157,34 L158,34 C158.552285,34 159,33.5522847 159,33 L159,33 L159,32 L160,32 C160.552285,32 161,31.5522847 161,31 L161,31 L161,30 C161,29.4477153 160.552285,29 160,29 L160,29 L159,29 L159,26 L160,26 C160.552285,26 161,25.5522847 161,25 L161,25 L161,24 C161,23.4477153 160.552285,23 160,23 L160,23 L159,22.999 L159,22 C159,21.4477153 158.552285,21 158,21 L158,21 L157,21 C156.447715,21 156,21.4477153 156,22 L156,22 L156,23 L154,23 L154,22 C154,21.4477153 153.552285,21 153,21 L153,21 Z M156,26 L156,29 L154,29 L154,26 L156,26 Z" id="Combined-Shape"></path>
            </g>
        </g>
    </g>
</symbol><symbol viewBox="0 0 14 14" id="iconfont-tag_icon2">
    <title>tag_icon2</title>
    <g id="页面-1" stroke="none" stroke-width="1" fill="none" fill-rule="evenodd">
        <g id="发现/标签-详情" transform="translate(-113.000000, -392.000000)" fill="#3388FF">
            <g id="详情" transform="translate(0.000000, 222.000000)">
                <g id="母标签" transform="translate(15.000000, 145.000000)">
                    <g id="Group-3" transform="translate(89.000000, 22.000000)">
                        <path d="M16,3 C19.8659932,3 23,6.13400675 23,10 C23,13.8659932 19.8659932,17 16,17 C12.1340068,17 9,13.8659932 9,10 C9,6.13400675 12.1340068,3 16,3 Z M17.6666667,6 C17.1143819,6 16.6666667,6.44771525 16.6666667,7 L16.6666667,7 L16.666,7.23 L15.333,7.23 L15.3333333,7 C15.3333333,6.44771525 14.8856181,6 14.3333333,6 C13.7810486,6 13.3333333,6.44771525 13.3333333,7 L13.3333333,7 L13.333,7.23 L12.9230769,7.23076923 C12.4132756,7.23076923 12,7.64404485 12,8.15384615 C12,8.66364746 12.4132756,9.07692308 12.9230769,9.07692308 L12.9230769,9.07692308 L13.333,9.076 L13.333,10.923 L12.9230769,10.9230769 C12.4132756,10.9230769 12,11.3363525 12,11.8461538 C12,12.3559552 12.4132756,12.7692308 12.9230769,12.7692308 L12.9230769,12.7692308 L13.333,12.769 L13.3333333,13 C13.3333333,13.5522847 13.7810486,14 14.3333333,14 C14.8856181,14 15.3333333,13.5522847 15.3333333,13 L15.3333333,13 L15.333,12.769 L16.666,12.769 L16.6666667,13 C16.6666667,13.5522847 17.1143819,14 17.6666667,14 C18.2189514,14 18.6666667,13.5522847 18.6666667,13 L18.6666667,13 L18.666,12.769 L19.0769231,12.7692308 C19.5867244,12.7692308 20,12.3559552 20,11.8461538 C20,11.3363525 19.5867244,10.9230769 19.0769231,10.9230769 L19.0769231,10.9230769 L18.666,10.923 L18.666,9.076 L19.0769231,9.07692308 C19.5867244,9.07692308 20,8.66364746 20,8.15384615 C20,7.64404485 19.5867244,7.23076923 19.0769231,7.23076923 L19.0769231,7.23076923 L18.666,7.23 L18.6666667,7 C18.6666667,6.44771525 18.2189514,6 17.6666667,6 Z M16.666,9.076 L16.666,10.923 L15.333,10.923 L15.333,9.076 L16.666,9.076 Z" id="tag_icon2"></path>
                    </g>
                </g>
            </g>
        </g>
    </g>
</symbol><symbol viewBox="0 0 14 14" id="iconfont-tag_icon3">
    <title>tag_icon2</title>
    <g id="页面-1" stroke="none" stroke-width="1" fill="none" fill-rule="evenodd">
        <g id="发现/标签-车型-无车控指数" transform="translate(-130.000000, -327.000000)" fill="#D377CD">
            <g id="Group-2" transform="translate(-31.000000, 230.000000)">
                <path d="M168,97 C171.865993,97 175,100.134007 175,104 C175,107.865993 171.865993,111 168,111 C164.134007,111 161,107.865993 161,104 C161,100.134007 164.134007,97 168,97 Z M168.04886,99.1486328 C165.674462,100.21243 166.226113,103.279661 166.155407,104.211065 C165.558151,103.630256 165.445328,102.242574 165.445328,102.242574 C164.814788,102.627861 164.498525,103.657405 164.498525,104.492411 C164.498525,106.511755 165.876152,108.148633 167.575434,108.148633 C169.274681,108.148633 170.652344,106.511729 170.652344,104.492411 C170.652344,103.292325 169.910837,102.738571 169.919776,101.104088 C168.882001,101.455867 168.691968,102.452729 168.758879,103.085921 C168.10561,102.173532 168.052385,101.140091 168.048904,99.7323103 L168.04886,99.1486328 L168.04886,99.1486328 Z" id="tag_icon2"></path>
            </g>
        </g>
    </g>
</symbol><symbol viewBox="0 0 22 22" id="iconfont-user">
    <title>Combined Shape</title>
    <g id="页面-1" stroke="none" stroke-width="1" fill="none" fill-rule="evenodd" fill-opacity="0.596637228">
        <g id="发现" transform="translate(-334.000000, -184.000000)" fill="#FFFFFF">
            <g id="信息流" transform="translate(4.000000, 168.000000)">
                <g id="标签内容" transform="translate(186.000000, 0.000000)">
                    <path d="M155,38 C161.075132,38 166,33.0751322 166,27 C166,20.9248678 161.075132,16 155,16 C148.924868,16 144,20.9248678 144,27 C144,33.0751322 148.924868,38 155,38 Z M155,29 C158.313708,29 161,31.2385763 161,34 L161,34 L149,34 C149,31.2385763 151.686292,29 155,29 Z M154.5,20 C156.985281,20 159,22.0147186 159,24.5 C159,26.9852814 156.985281,29 154.5,29 C152.014719,29 150,26.9852814 150,24.5 C150,22.0147186 152.014719,20 154.5,20 Z" id="Combined-Shape"></path>
                </g>
            </g>
        </g>
    </g>
</symbol></svg>