<?xml version="1.0" encoding="UTF-8"?>
<svg width="26px" height="26px" viewBox="0 0 26 26" version="1.1" xmlns="http://www.w3.org/2000/svg" xmlns:xlink="http://www.w3.org/1999/xlink">
    <title>Group 2</title>
    <g id="页面-1" stroke="none" stroke-width="1" fill="none" fill-rule="evenodd">
        <g id="登录流程/赠送徽章" transform="translate(-175.000000, -629.000000)">
            <g id="Group-2" transform="translate(175.000000, 629.000000)">
                <path d="M10.2295145,8.38252422 L13,11.153 L15.7704855,8.38252422 C16.2805178,7.87249193 17.1074435,7.87249193 17.6174758,8.38252422 C18.1275081,8.89255651 18.1275081,9.71948224 17.6174758,10.2295145 L14.847,13 L17.6174758,15.7704855 C18.1275081,16.2805178 18.1275081,17.1074435 17.6174758,17.6174758 C17.1074435,18.1275081 16.2805178,18.1275081 15.7704855,17.6174758 L13,14.847 L10.2295145,17.6174758 C9.71948224,18.1275081 8.89255651,18.1275081 8.38252422,17.6174758 C7.87249193,17.1074435 7.87249193,16.2805178 8.38252422,15.7704855 L11.153,13 L8.38252422,10.2295145 C7.87249193,9.71948224 7.87249193,8.89255651 8.38252422,8.38252422 C8.89255651,7.87249193 9.71948224,7.87249193 10.2295145,8.38252422 Z" id="close_icon" fill="#FFFFFF"></path>
                <circle id="Oval" stroke="#FFFFFF" cx="13" cy="13" r="12.5"></circle>
            </g>
        </g>
    </g>
</svg>