
<svg width="17px" height="14px" viewBox="0 0 17 14" version="1.1" xmlns="http://www.w3.org/2000/svg" xmlns:xlink="http://www.w3.org/1999/xlink">
    <title>Combined Shape</title>
    <g id="页面-1" stroke="none" stroke-width="1" fill="none" fill-rule="evenodd">
        <g id="咪控/提问1" transform="translate(-287.000000, -372.000000)" stroke="#979797">
            <g id="Home-chat" transform="translate(16.000000, 118.000000)">
                <g id="Frame-43" transform="translate(43.000000, 60.000000)">
                    <path d="M230.5,198.5 L230.5,207.5 L230,207.5 C229.585786,207.5 229.210786,207.332107 228.93934,207.06066 C228.667893,206.789214 228.5,206.414214 228.5,206 L228.5,206 L228.5,200 C228.5,199.585786 228.667893,199.210786 228.93934,198.93934 C229.210786,198.667893 229.585786,198.5 230,198.5 L230,198.5 L230.5,198.5 Z M236.480869,194.778283 C237.245454,194.77425 237.932205,195.065198 238.455372,195.546931 C239.211725,196.243384 239.627012,197.331819 239.465347,198.5 L239.465347,198.5 L243,198.5 C243.414214,198.5 243.789214,198.667893 244.06066,198.93934 C244.332107,199.210786 244.5,199.585786 244.5,200 L244.5,200 L244.5,203 C244.5,204.242641 243.99632,205.367641 243.181981,206.181981 C242.367641,206.99632 241.242641,207.5 240,207.5 L240,207.5 L232.5,207.5 L232.5,198.500122 L235.836162,198.500933 C236.195892,197.313864 236.417041,196.066761 236.480869,194.778283 Z" id="Combined-Shape"></path>
                </g>
            </g>
        </g>
    </g>
</svg>