
<svg width="17px" height="14px" viewBox="0 0 17 14" version="1.1" xmlns="http://www.w3.org/2000/svg" xmlns:xlink="http://www.w3.org/1999/xlink">
    <title>Combined Shape</title>
    <g id="页面-1" stroke="none" stroke-width="1" fill="none" fill-rule="evenodd">
        <g id="咪控/提问2" transform="translate(-287.000000, -372.000000)" fill="#3388FF">
            <g id="Home-chat" transform="translate(16.000000, 118.000000)">
                <g id="Frame-43" transform="translate(43.000000, 60.000000)">
                    <path d="M231,198 L231,208 L230,208 C228.895431,208 228,207.104569 228,206 L228,200 C228,198.895431 228.895431,198 230,198 L231,198 Z M236,194 C238.209139,194 240,195.790861 240,198 L243,198 C244.104569,198 245,198.895431 245,200 L245,203 C245,205.761424 242.761424,208 240,208 L232,208 L232,198 L235.460458,198.000842 C235.785555,196.82345 235.970628,195.588158 235.996782,194.313828 L236,194 Z" id="Combined-Shape"></path>
                </g>
            </g>
        </g>
    </g>
</svg>