
<svg width="17px" height="14px" viewBox="0 0 17 14" version="1.1" xmlns="http://www.w3.org/2000/svg" xmlns:xlink="http://www.w3.org/1999/xlink">
    <title>Combined Shape</title>
    <g id="页面-1" stroke="none" stroke-width="1" fill="none" fill-rule="evenodd">
        <g id="咪控/提问1" transform="translate(-328.000000, -372.000000)" stroke="#979797">
            <g id="Home-chat" transform="translate(16.000000, 118.000000)">
                <g id="Frame-43" transform="translate(43.000000, 60.000000)">
                    <path d="M271.5,198.5 L271.5,207.5 L271,207.5 C270.585786,207.5 270.210786,207.332107 269.93934,207.06066 C269.667893,206.789214 269.5,206.414214 269.5,206 L269.5,206 L269.5,200 C269.5,199.585786 269.667893,199.210786 269.93934,198.93934 C270.210786,198.667893 270.585786,198.5 271,198.5 L271,198.5 L271.5,198.5 Z M277.480869,194.778283 C278.245454,194.77425 278.932205,195.065198 279.455372,195.546931 C280.211725,196.243384 280.627012,197.331819 280.465347,198.5 L280.465347,198.5 L284,198.5 C284.414214,198.5 284.789214,198.667893 285.06066,198.93934 C285.332107,199.210786 285.5,199.585786 285.5,200 L285.5,200 L285.5,203 C285.5,204.242641 284.99632,205.367641 284.181981,206.181981 C283.367641,206.99632 282.242641,207.5 281,207.5 L281,207.5 L273.5,207.5 L273.5,198.500122 L276.836162,198.500933 C277.195892,197.313864 277.417041,196.066761 277.480869,194.778283 Z" id="Combined-Shape" transform="translate(277.500000, 201.000000) scale(1, -1) translate(-277.500000, -201.000000) "></path>
                </g>
            </g>
        </g>
    </g>
</svg>