
<svg width="17px" height="14px" viewBox="0 0 17 14" version="1.1" xmlns="http://www.w3.org/2000/svg" xmlns:xlink="http://www.w3.org/1999/xlink">
    <title>Combined Shape</title>
    <g id="页面-1" stroke="none" stroke-width="1" fill="none" fill-rule="evenodd">
        <g id="咪控/提问带图片" transform="translate(-328.000000, -687.000000)" fill="#D377CD">
            <g id="Home-chat" transform="translate(16.000000, 118.000000)">
                <g id="Frame-43" transform="translate(43.000000, 60.000000)">
                    <path d="M272,513 L272,523 L271,523 C269.895431,523 269,522.104569 269,521 L269,515 C269,513.895431 269.895431,513 271,513 L272,513 Z M277,509 C279.209139,509 281,510.790861 281,513 L284,513 C285.104569,513 286,513.895431 286,515 L286,518 C286,520.761424 283.761424,523 281,523 L273,523 L273,513 L276.460458,513.000842 C276.785555,511.82345 276.970628,510.588158 276.996782,509.313828 L277,509 Z" id="Combined-Shape" transform="translate(277.500000, 516.000000) scale(1, -1) translate(-277.500000, -516.000000) "></path>
                </g>
            </g>
        </g>
    </g>
</svg>